<mxfile host="app.diagrams.net" agent="Mozilla/5.0 (Windows NT 10.0; Win64; x64) AppleWebKit/537.36 (KHTML, like Gecko) Chrome/135.0.0.0 Safari/537.36" version="26.2.12">
  <diagram name="Página-1" id="b7vd4oJ2WIqv9CwINlRR">
    <mxGraphModel dx="1044" dy="562" grid="1" gridSize="10" guides="1" tooltips="1" connect="1" arrows="1" fold="1" page="1" pageScale="1" pageWidth="827" pageHeight="1169" math="0" shadow="0">
      <root>
        <mxCell id="0" />
        <mxCell id="1" parent="0" />
        <mxCell id="2" value="" style="whiteSpace=wrap;strokeWidth=2;verticalAlign=top;" parent="1" vertex="1">
          <mxGeometry x="20" y="450" width="1015" height="864" as="geometry" />
        </mxCell>
        <mxCell id="3" value="SSO Externo" style="whiteSpace=wrap;strokeWidth=2;" parent="2" vertex="1">
          <mxGeometry x="817" y="175" width="146" height="54" as="geometry" />
        </mxCell>
        <mxCell id="4" value="Autenticación y Seguridad" style="whiteSpace=wrap;strokeWidth=2;" parent="2" vertex="1">
          <mxGeometry x="712" y="326" width="247" height="54" as="geometry" />
        </mxCell>
        <mxCell id="5" value="Gestión de Proyectos" style="whiteSpace=wrap;strokeWidth=2;" parent="2" vertex="1">
          <mxGeometry x="583" y="477" width="210" height="54" as="geometry" />
        </mxCell>
        <mxCell id="6" value="Evaluación" style="whiteSpace=wrap;strokeWidth=2;" parent="2" vertex="1">
          <mxGeometry x="599" y="636" width="137" height="54" as="geometry" />
        </mxCell>
        <mxCell id="7" value="Gestión de Usuarios" style="whiteSpace=wrap;strokeWidth=2;" parent="2" vertex="1">
          <mxGeometry x="387" y="326" width="201" height="54" as="geometry" />
        </mxCell>
        <mxCell id="8" value="Notificaciones" style="whiteSpace=wrap;strokeWidth=2;" parent="2" vertex="1">
          <mxGeometry x="592" y="782" width="162" height="54" as="geometry" />
        </mxCell>
        <mxCell id="9" value="Integración Externa" style="whiteSpace=wrap;strokeWidth=2;" parent="2" vertex="1">
          <mxGeometry x="192" y="592" width="201" height="54" as="geometry" />
        </mxCell>
        <mxCell id="10" value="Auditoría y Trazabilidad" style="whiteSpace=wrap;strokeWidth=2;" parent="2" vertex="1">
          <mxGeometry x="299" y="46" width="230" height="54" as="geometry" />
        </mxCell>
        <mxCell id="11" value="authenticateUser" style="curved=1;startArrow=none;endArrow=oval;endSize=10;endFill=1;exitX=0.5;exitY=0.99;entryX=0.58;entryY=0;" parent="2" source="3" target="4" edge="1">
          <mxGeometry relative="1" as="geometry">
            <Array as="points">
              <mxPoint x="890" y="277" />
            </Array>
          </mxGeometry>
        </mxCell>
        <mxCell id="12" value="verifyUser" style="curved=1;startArrow=none;endArrow=oval;endSize=10;endFill=1;exitX=0.45;exitY=1;entryX=0.69;entryY=0.01;" parent="2" source="4" target="5" edge="1">
          <mxGeometry relative="1" as="geometry">
            <Array as="points">
              <mxPoint x="800" y="429" />
            </Array>
          </mxGeometry>
        </mxCell>
        <mxCell id="13" value="verifyUser" style="curved=1;startArrow=none;endArrow=oval;endSize=10;endFill=1;exitX=0.6;exitY=1;entryX=0.99;entryY=0.09;" parent="2" source="4" target="6" edge="1">
          <mxGeometry relative="1" as="geometry">
            <Array as="points">
              <mxPoint x="904" y="429" />
              <mxPoint x="904" y="580" />
            </Array>
          </mxGeometry>
        </mxCell>
        <mxCell id="14" value="manageRoles" style="curved=1;startArrow=none;endArrow=oval;endSize=10;endFill=1;exitX=0.86;exitY=1;entryX=0.51;entryY=0.01;" parent="2" source="7" target="5" edge="1">
          <mxGeometry relative="1" as="geometry">
            <Array as="points">
              <mxPoint x="692" y="429" />
            </Array>
          </mxGeometry>
        </mxCell>
        <mxCell id="15" value="requestEvaluation" style="curved=1;startArrow=none;endArrow=oval;endSize=10;endFill=1;exitX=0.5;exitY=1.01;entryX=0.55;entryY=-0.01;" parent="2" source="5" target="6" edge="1">
          <mxGeometry relative="1" as="geometry">
            <Array as="points">
              <mxPoint x="688" y="580" />
            </Array>
          </mxGeometry>
        </mxCell>
        <mxCell id="16" value="sendEvent" style="curved=1;startArrow=none;endArrow=oval;endSize=10;endFill=1;exitX=0.92;exitY=1.01;entryX=1;entryY=0.04;" parent="2" source="5" target="8" edge="1">
          <mxGeometry relative="1" as="geometry">
            <Array as="points">
              <mxPoint x="936" y="580" />
              <mxPoint x="936" y="731" />
            </Array>
          </mxGeometry>
        </mxCell>
        <mxCell id="17" value="registerGrade" style="curved=1;startArrow=none;endArrow=oval;endSize=10;endFill=1;exitX=0.5;exitY=0.99;entryX=0.44;entryY=0;" parent="2" source="6" target="8" edge="1">
          <mxGeometry relative="1" as="geometry">
            <Array as="points">
              <mxPoint x="667" y="731" />
            </Array>
          </mxGeometry>
        </mxCell>
        <mxCell id="18" value="exportData" style="curved=1;startArrow=none;endArrow=oval;endSize=10;endFill=1;exitX=0.15;exitY=1;entryX=0.64;entryY=-0.01;" parent="2" source="7" target="9" edge="1">
          <mxGeometry relative="1" as="geometry">
            <Array as="points">
              <mxPoint x="290" y="429" />
              <mxPoint x="290" y="580" />
            </Array>
          </mxGeometry>
        </mxCell>
        <mxCell id="19" value="exportData" style="curved=1;startArrow=none;endArrow=oval;endSize=10;endFill=1;exitX=0;exitY=0.83;entryX=0.53;entryY=-0.01;" parent="2" source="5" target="9" edge="1">
          <mxGeometry relative="1" as="geometry">
            <Array as="points">
              <mxPoint x="228" y="580" />
            </Array>
          </mxGeometry>
        </mxCell>
        <mxCell id="20" value="" style="curved=1;startArrow=none;endArrow=block;exitX=1;exitY=0.78;entryX=0.5;entryY=-0.01;" parent="2" source="10" target="3" edge="1">
          <mxGeometry relative="1" as="geometry">
            <Array as="points">
              <mxPoint x="890" y="137" />
            </Array>
          </mxGeometry>
        </mxCell>
        <mxCell id="21" value="" style="curved=1;startArrow=none;endArrow=block;exitX=1;exitY=0.94;entryX=0.34;entryY=0;" parent="2" source="10" target="4" edge="1">
          <mxGeometry relative="1" as="geometry">
            <Array as="points">
              <mxPoint x="722" y="137" />
              <mxPoint x="722" y="277" />
            </Array>
          </mxGeometry>
        </mxCell>
        <mxCell id="22" value="" style="curved=1;startArrow=none;endArrow=block;exitX=0.64;exitY=0.99;entryX=0.5;entryY=0;" parent="2" source="10" target="7" edge="1">
          <mxGeometry relative="1" as="geometry">
            <Array as="points">
              <mxPoint x="488" y="137" />
            </Array>
          </mxGeometry>
        </mxCell>
        <mxCell id="23" value="" style="curved=1;startArrow=none;endArrow=block;exitX=0.88;exitY=0.99;entryX=0.39;entryY=0.01;" parent="2" source="10" target="5" edge="1">
          <mxGeometry relative="1" as="geometry">
            <Array as="points">
              <mxPoint x="624" y="137" />
              <mxPoint x="624" y="429" />
            </Array>
          </mxGeometry>
        </mxCell>
        <mxCell id="24" value="" style="curved=1;startArrow=none;endArrow=block;exitX=0.39;exitY=0.99;entryX=0;entryY=0.19;" parent="2" source="10" target="6" edge="1">
          <mxGeometry relative="1" as="geometry">
            <Array as="points">
              <mxPoint x="352" y="137" />
              <mxPoint x="352" y="580" />
            </Array>
          </mxGeometry>
        </mxCell>
        <mxCell id="25" value="" style="curved=1;startArrow=none;endArrow=block;exitX=0;exitY=0.9;entryX=0;entryY=0.32;" parent="2" source="10" target="8" edge="1">
          <mxGeometry relative="1" as="geometry">
            <Array as="points">
              <mxPoint x="76" y="137" />
              <mxPoint x="76" y="731" />
            </Array>
          </mxGeometry>
        </mxCell>
        <mxCell id="26" value="" style="curved=1;startArrow=none;endArrow=block;exitX=0;exitY=0.99;entryX=0.37;entryY=-0.01;" parent="2" source="10" target="9" edge="1">
          <mxGeometry relative="1" as="geometry">
            <Array as="points">
              <mxPoint x="140" y="137" />
              <mxPoint x="140" y="580" />
            </Array>
          </mxGeometry>
        </mxCell>
      </root>
    </mxGraphModel>
  </diagram>
</mxfile>
